<svg width="1200pt" height="1200pt" version="1.1" viewBox="0 0 1200 1200" xmlns="http://www.w3.org/2000/svg" fill="currentColor" stroke-width="0">
 <path d="m925 300c0 41.422-33.578 75-75 75s-75-33.578-75-75 33.578-75 75-75 75 33.578 75 75"/>
 <path d="m1027.5 397.5c-15-15-37.5-15-52.5 0l-85 85-135-135c-7.5-7.5-17.5-10-27.5-10h-125c-10 0-20 5-27.5 10l-125 125c-15 15-15 37.5 0 52.5s37.5 15 52.5 0l115-115h77.5l-240 240h-205c-27.5 0-50 22.5-50 50s22.5 50 50 50h225c12.5 0 25-5 35-15l65-65 82.5 82.5-32.5 190c-5 27.5 12.5 52.5 40 57.5h7.5c25 0 45-17.5 50-42.5l37.5-212.5c2.5-15-2.5-32.5-15-45l-70-70 125-125 57.5 57.5c7.5 7.5 17.5 10 27.5 10s20-2.5 27.5-10l112.5-112.5c15-12.5 15-37.5 2.5-52.5z"/>
</svg>
