<svg xmlns="http://www.w3.org/2000/svg" xmlns:xlink="http://www.w3.org/1999/xlink" version="1.1" x="0px" y="0px" viewBox="0 0 100 125" style="enable-background:new 0 0 100 100;" xml:space="preserve"><g><path d="M37.07,13.26h26.01v-0.21c0-1.16,0.3-2.25,0.9-3.22H36.25c0.51,0.9,0.81,1.97,0.81,3.08V13.26z"/><path d="M75.54,13.05v0.21h8.62V9.83h-9.53C75.22,10.78,75.54,11.87,75.54,13.05z"/><path d="M24.39,12.91c0-1.11,0.3-2.18,0.81-3.08h-9.36v3.43h8.55V12.91z"/><path d="M75.57,73.97l-11.68-7.23c-0.49-0.32-0.81-0.86-0.81-1.46V50.14c0-0.6,0.35-1.18,0.86-1.48c5.05-2.9,8.18-8.32,8.18-14.14   V13.05c0-0.39-0.07-0.76-0.21-1.09c-0.02-0.02-0.02-0.05-0.02-0.07c-0.46-0.97-1.44-1.65-2.57-1.65c-0.74,0-1.46,0.28-1.97,0.81   c-0.25,0.25-0.46,0.53-0.6,0.83c0,0.02-0.02,0.05-0.02,0.07c-0.14,0.35-0.21,0.72-0.21,1.09v21.21c0,1.21-0.58,2.32-1.55,3.01   c-0.97,0.67-2.2,0.83-3.31,0.44c-1.81-0.67-3.69-1-5.61-1H44.34c-1.97,0-3.89,0.35-5.73,1.04c-1.14,0.42-2.41,0.25-3.41-0.42   c-0.97-0.7-1.55-1.81-1.55-2.99V12.91c0-0.23-0.02-0.46-0.09-0.7c-0.02-0.12-0.07-0.23-0.12-0.32c-0.39-1.04-1.44-1.78-2.62-1.78   h-0.21c-1.18,0-2.23,0.74-2.62,1.78c-0.05,0.09-0.09,0.21-0.12,0.32c-0.07,0.23-0.09,0.46-0.09,0.7v21.47   c0,5.93,3.22,11.4,8.39,14.28c0.56,0.3,0.88,0.86,0.88,1.48v15.14c0,0.6-0.3,1.16-0.81,1.46l-11.87,7.23   c-1.76,1.09-2.87,3.06-2.87,5.15v17.04h7.72v-9.13c0-3.25,1.74-6.35,4.52-8.04l4.27-2.6c1.48-0.9,3.18-1.39,4.91-1.39h14.19   c1.76,0,3.48,0.51,4.96,1.41l4.15,2.57c2.8,1.74,4.47,4.73,4.47,8.02v9.16h7.72V79.07C78.42,76.98,77.35,75.06,75.57,73.97z"/><path d="M42.72,26.1c0,3.96,3.22,7.19,7.19,7.19c3.99,0,7.21-3.22,7.21-7.19c0-3.99-3.22-7.21-7.21-7.21   C45.94,18.89,42.72,22.11,42.72,26.1z"/><rect x="7.9" y="3.85" width="4.5" height="15.41"/><rect y="3.85" width="4.5" height="15.41"/><rect x="95.5" y="3.85" width="4.5" height="15.41"/><rect x="87.6" y="3.85" width="4.47" height="15.41"/></g></svg>